# xmcd
#
# Track frame offsets:
#	150
#	19710
#	27947
#	52170
#	69902
#	86490
#	108532
#	122097
#	144267
#	163240
#	185507
#	204987
#
# Disc length: 2947 seconds
#
# Revision: 1
# Processed by: cddbd v1.4PL0 Copyright (c) Steve Scherf et al.
# Submitted via: audiograbber 1.81.02
#
DISCID=a20b810c
DTITLE=Shawn Mullins - The First Ten Years
DYEAR=1999
DGENRE=
TTITLE0=Lately
TTITLE1=Salt Lake City
TTITLE2=Joshua
TTITLE3=Drumming Clown
TTITLE4=Pandora
TTITLE5=Evolution Man
TTITLE6=This Time/Last Time
TTITLE7=Just Like Me
TTITLE8=Eggshells
TTITLE9=The Dream
TTITLE10=Canyons and Caverns
TTITLE11=Changes
EXTD=
EXTT0=
EXTT1=
EXTT2=
EXTT3=
EXTT4=
EXTT5=
EXTT6=
EXTT7=
EXTT8=
EXTT9=
EXTT10=
EXTT11=
PLAYORDER=
